{
    "asset": {
        "copyright": "(C)2018 Sam",
        "generator": "Maya2glTF v0.9.6-beta 46c9da3",
        "version": "2.0"
    },
    "scenes": [
        {
            "nodes": [
                0
            ]
        }
    ],
    "scene": 0,
    "nodes": [
        {
            "children": [
                1
            ],
            "name": "pCube2"
        },
        {
            "mesh": 0,
            "translation": [
                0.05002423375844956,
                -0.02072232961654663,
                0.6915023922920227
            ],
            "name": "pCube2Shape"
        }
    ],
    "meshes": [
        {
            "primitives": [
                {
                    "attributes": {
                        "NORMAL": 1,
                        "POSITION": 2,
                        "TANGENT": 3,
                        "TEXCOORD_0": 4
                    },
                    "indices": 0,
                    "mode": 4,
                    "material": 0
                }
            ],
            "name": "pCube2Shape"
        }
    ],
    "accessors": [
        {
            "bufferView": 0,
            "byteOffset": 0,
            "componentType": 5123,
            "count": 1236,
            "max": [
                265
            ],
            "min": [
                0
            ],
            "type": "SCALAR"
        },
        {
            "bufferView": 1,
            "byteOffset": 0,
            "componentType": 5126,
            "count": 266,
            "max": [
                1.0,
                1.0,
                1.0
            ],
            "min": [
                -1.0,
                -1.0,
                -1.0
            ],
            "type": "VEC3"
        },
        {
            "bufferView": 1,
            "byteOffset": 3192,
            "componentType": 5126,
            "count": 266,
            "max": [
                0.4999999701976776,
                0.5207223296165466,
                1.191502332687378
            ],
            "min": [
                -0.5,
                -0.5207223296165466,
                -1.1915024518966678
            ],
            "type": "VEC3"
        },
        {
            "bufferView": 2,
            "byteOffset": 0,
            "componentType": 5126,
            "count": 266,
            "max": [
                1.0,
                1.0,
                1.0,
                1.0
            ],
            "min": [
                -3.725292287981574e-7,
                -1.0,
                -1.0,
                1.0
            ],
            "type": "VEC4"
        },
        {
            "bufferView": 3,
            "byteOffset": 0,
            "componentType": 5126,
            "count": 266,
            "max": [
                1.0,
                1.0
            ],
            "min": [
                0.0,
                0.0
            ],
            "type": "VEC2"
        }
    ],
    "materials": [
        {
            "pbrMetallicRoughness": {
                "baseColorFactor": [
                    1.0,
                    1.0,
                    1.0,
                    1.0
                ],
                "baseColorTexture": {
                    "index": 0
                },
                "metallicFactor": 0.0,
                "roughnessFactor": 1.0
            },
            "emissiveFactor": [
                0.0,
                0.0,
                0.0
            ]
        }
    ],
    "textures": [
        {
            "sampler": 0,
            "source": 0
        }
    ],
    "images": [
        {
            "uri": "tex_OpacityTest.png"
        }
    ],
    "samplers": [
        {
            "magFilter": 9729,
            "minFilter": 9987,
            "wrapS": 10497,
            "wrapT": 10497
        }
    ],
    "bufferViews": [
        {
            "buffer": 0,
            "byteOffset": 12768,
            "byteLength": 2472,
            "target": 34963
        },
        {
            "buffer": 0,
            "byteOffset": 4256,
            "byteLength": 6384,
            "byteStride": 12,
            "target": 34962
        },
        {
            "buffer": 0,
            "byteOffset": 0,
            "byteLength": 4256,
            "byteStride": 16,
            "target": 34962
        },
        {
            "buffer": 0,
            "byteOffset": 10640,
            "byteLength": 2128,
            "byteStride": 8,
            "target": 34962
        }
    ],
    "buffers": [
        {
            "byteLength": 15240,
            "uri": "obj_OpacityTest_Ziriax0.bin"
        }
    ]
}
