{"asset":{"version":"2.0","generator":"babylon.js glTF exporter for maya 2018 v1.1.6","copyright":"2017 (c) BabylonJS"},"scene":0,"scenes":[{"nodes":[0]}],"nodes":[{"mesh":0,"translation":[0.0,0.0,0.0],"rotation":[0.0,0.0,0.0,1.0],"scale":[1.0,1.0,1.0],"name":"obj_lightmaptest"}],"meshes":[{"primitives":[{"attributes":{"POSITION":1,"NORMAL":2,"TEXCOORD_0":3,"TEXCOORD_1":4},"indices":0,"mode":4,"material":0}],"name":"obj_lightmaptest"}],"accessors":[{"bufferView":0,"componentType":5123,"count":4638,"type":"SCALAR","name":"accessorIndices"},{"bufferView":1,"componentType":5126,"count":930,"max":[2.274221,1.02283025,2.274221],"min":[-2.274221,-0.06265998,-2.274221],"type":"VEC3","name":"accessorPositions"},{"bufferView":1,"byteOffset":11160,"componentType":5126,"count":930,"type":"VEC3","name":"accessorNormals"},{"bufferView":2,"componentType":5126,"count":930,"type":"VEC2","name":"accessorUVs"},{"bufferView":2,"byteOffset":7440,"componentType":5126,"count":930,"type":"VEC2","name":"accessorUV2s"}],"bufferViews":[{"buffer":0,"byteLength":9276,"name":"bufferViewScalar"},{"buffer":0,"byteOffset":9276,"byteLength":22320,"byteStride":12,"name":"bufferViewFloatVec3"},{"buffer":0,"byteOffset":31596,"byteLength":14880,"byteStride":8,"name":"bufferViewFloatVec2"}],"buffers":[{"uri":"obj_lightmaptest.bin","byteLength":46476}],"materials":[{"pbrMetallicRoughness":{"baseColorFactor":[1.0,1.0,1.0,1.0],"baseColorTexture":{"index":1,"texCoord":0},"metallicFactor":0.0,"roughnessFactor":1.0,"metallicRoughnessTexture":{"index":2,"texCoord":0}},"normalTexture":{"index":0,"texCoord":0},"emissiveFactor":[0.0,0.0,0.0],"alphaMode":"OPAQUE","name":"mat_lightmaptest"}],"textures":[{"sampler":0,"source":0,"name":"tex_lightmaptest_Normal.png"},{"sampler":1,"source":1,"name":"tex_lightmaptest_AlbedoTransparency.png"},{"sampler":2,"source":2,"name":"mat_lightmaptest_metallicRoughness.jpg"}],"images":[{"uri":"tex_lightmaptest_Normal.png"},{"uri":"tex_lightmaptest_AlbedoTransparency.png"},{"uri":"mat_lightmaptest_metallicRoughness.jpg"}],"samplers":[{"magFilter":9729,"minFilter":9987,"wrapS":10497,"wrapT":10497},{"magFilter":9729,"minFilter":9987,"wrapS":10497,"wrapT":10497},{"magFilter":9729,"minFilter":9987,"wrapS":10497,"wrapT":10497}]}