{
    "accessors" : [
        {
            "bufferView" : 0,
            "componentType" : 5123,
            "count" : 4638,
            "max" : [
                929
            ],
            "min" : [
                0
            ],
            "type" : "SCALAR"
        },
        {
            "bufferView" : 1,
            "componentType" : 5126,
            "count" : 930,
            "max" : [
                2.2742209434509277,
                2.2742209434509277,
                0.06265997886657715
            ],
            "min" : [
                -2.2742209434509277,
                -2.2742209434509277,
                -1.0228302478790283
            ],
            "type" : "VEC3"
        },
        {
            "bufferView" : 2,
            "componentType" : 5126,
            "count" : 930,
            "max" : [
                1.0,
                1.0,
                1.0
            ],
            "min" : [
                -1.0,
                -1.0,
                -1.0
            ],
            "type" : "VEC3"
        },
        {
            "bufferView" : 3,
            "componentType" : 5126,
            "count" : 930,
            "max" : [
                1.0,
                1.0,
                3.1539395422441885e-05,
                1.0
            ],
            "min" : [
                -1.0,
                -1.0,
                -3.1539395422441885e-05,
                1.0
            ],
            "type" : "VEC4"
        },
        {
            "bufferView" : 4,
            "componentType" : 5126,
            "count" : 930,
            "max" : [
                0.9395890831947327,
                1.9921875
            ],
            "min" : [
                0.0078125,
                1.0078125
            ],
            "type" : "VEC2"
        },
        {
            "bufferView" : 5,
            "componentType" : 5126,
            "count" : 930,
            "max" : [
                0.9395890831947327,
                1.9921875
            ],
            "min" : [
                0.0078125,
                1.0078125
            ],
            "type" : "VEC2"
        }
    ],
    "asset" : {
        "generator" : "Khronos Blender glTF 2.0 exporter",
        "version" : "2.0"
    },
    "bufferViews" : [
        {
            "buffer" : 0,
            "byteLength" : 9276,
            "byteOffset" : 0,
            "target" : 34963
        },
        {
            "buffer" : 0,
            "byteLength" : 11160,
            "byteOffset" : 9276,
            "target" : 34962
        },
        {
            "buffer" : 0,
            "byteLength" : 11160,
            "byteOffset" : 20436,
            "target" : 34962
        },
        {
            "buffer" : 0,
            "byteLength" : 14880,
            "byteOffset" : 31596,
            "target" : 34962
        },
        {
            "buffer" : 0,
            "byteLength" : 7440,
            "byteOffset" : 46476,
            "target" : 34962
        },
        {
            "buffer" : 0,
            "byteLength" : 7440,
            "byteOffset" : 53916,
            "target" : 34962
        }
    ],
    "buffers" : [
        {
            "byteLength" : 61356,
            "uri" : "obj_lightmaptest_lights.bin"
        }
    ],
    "extensions" : {
        "KHR_lights" : {
            "lights" : [
                {
                    "color" : [
                        1.0,
                        1.0,
                        1.0
                    ],
                    "intensity" : 1.0,
                    "name" : "Point.001",
                    "type" : "point"
                },
                {
                    "color" : [
                        1.0,
                        1.0,
                        1.0
                    ],
                    "intensity" : 1.0,
                    "name" : "Point.002",
                    "type" : "point"
                },
                {
                    "color" : [
                        1.0,
                        1.0,
                        1.0
                    ],
                    "intensity" : 1.0,
                    "name" : "Point.003",
                    "type" : "point"
                },
                {
                    "color" : [
                        1.0,
                        1.0,
                        1.0
                    ],
                    "intensity" : 1.0,
                    "name" : "Point.004",
                    "type" : "point"
                },
                {
                    "color" : [
                        0.0,
                        0.0,
                        0.0
                    ],
                    "name" : "Ambient_Scene",
                    "type" : "ambient"
                }
            ]
        }
    },
    "extensionsRequired" : [
        "KHR_lights"
    ],
    "extensionsUsed" : [
        "KHR_lights"
    ],
    "images" : [
        {
            "name" : "tex_lightmaptest_AlbedoTransparency.png",
            "uri" : "tex_lightmaptest_AlbedoTransparency.png.png"
        },
        {
            "name" : "mat_lightmaptest_metallicRoughness",
            "uri" : "mat_lightmaptest_metallicRoughness.jpg"
        },
        {
            "name" : "tex_lightmaptest_Normal.png",
            "uri" : "tex_lightmaptest_Normal.png.png"
        },
        {
            "name" : "tex_lightmaptest_lightmap",
            "uri" : "tex_lightmaptest_lightmap.png"
        }
    ],
    "materials" : [
        {
            "name" : "mat_lightmaptest",
            "normalTexture" : {
                "index" : 2
            },
            "occlusionTexture" : {
                "index" : 3
            },
            "pbrMetallicRoughness" : {
                "baseColorTexture" : {
                    "index" : 0
                },
                "metallicFactor" : 0.0,
                "metallicRoughnessTexture" : {
                    "index" : 1
                }
            }
        }
    ],
    "meshes" : [
        {
            "name" : "obj_lightmaptest",
            "primitives" : [
                {
                    "attributes" : {
                        "NORMAL" : 2,
                        "POSITION" : 1,
                        "TANGENT" : 3,
                        "TEXCOORD_0" : 4,
                        "TEXCOORD_1" : 5
                    },
                    "indices" : 0,
                    "material" : 0
                }
            ]
        }
    ],
    "nodes" : [
        {
            "name" : "Camera",
            "rotation" : [
                0.483536034822464,
                0.33687159419059753,
                -0.20870360732078552,
                0.7804827094078064
            ],
            "translation" : [
                7.481131553649902,
                5.34366512298584,
                6.5076398849487305
            ]
        },
        {
            "mesh" : 0,
            "name" : "obj_lightmaptest.001"
        },
        {
            "extensions" : {
                "KHR_lights" : {
                    "light" : 2
                }
            },
            "name" : "Correction_Point",
            "rotation" : [
                -0.7071067690849304,
                -0.0,
                0.0,
                0.7071067690849304
            ]
        },
        {
            "children" : [
                2
            ],
            "name" : "Point",
            "rotation" : [
                -3.090862321641907e-08,
                0.7071067094802856,
                -0.7071068286895752,
                3.0908616110991716e-08
            ],
            "translation" : [
                -1.8158881664276123,
                1.70662260055542,
                -0.4929458200931549
            ]
        },
        {
            "extensions" : {
                "KHR_lights" : {
                    "light" : 0
                }
            },
            "name" : "Correction_Point.001",
            "rotation" : [
                -0.7071067690849304,
                -0.0,
                0.0,
                0.7071067690849304
            ]
        },
        {
            "children" : [
                4
            ],
            "name" : "Point.001",
            "rotation" : [
                -3.090862321641907e-08,
                0.7071067094802856,
                -0.7071068286895752,
                3.0908616110991716e-08
            ],
            "translation" : [
                1.9145320653915405,
                -1.9137523174285889,
                -0.39453381299972534
            ]
        },
        {
            "extensions" : {
                "KHR_lights" : {
                    "light" : 1
                }
            },
            "name" : "Correction_Point.002",
            "rotation" : [
                -0.7071067690849304,
                -0.0,
                0.0,
                0.7071067690849304
            ]
        },
        {
            "children" : [
                6
            ],
            "name" : "Point.002",
            "rotation" : [
                -3.090862321641907e-08,
                0.7071067094802856,
                -0.7071068286895752,
                3.0908616110991716e-08
            ],
            "translation" : [
                1.8167251348495483,
                1.6760916709899902,
                -0.4107418358325958
            ]
        },
        {
            "extensions" : {
                "KHR_lights" : {
                    "light" : 3
                }
            },
            "name" : "Correction_Point.003",
            "rotation" : [
                -0.7071067690849304,
                -0.0,
                0.0,
                0.7071067690849304
            ]
        },
        {
            "children" : [
                8
            ],
            "name" : "Point.003",
            "translation" : [
                2.069322109222412,
                0.22527113556861877,
                1.8899143934249878
            ]
        },
        {
            "name" : "SceneRoot",
            "rotation" : [
                -3.090862321641907e-08,
                0.7071067094802856,
                -0.7071068286895752,
                -3.0908616110991716e-08
            ]
        },
        {
            "children" : [
                1,
                3,
                5,
                7
            ],
            "name" : "SceneRoot.001",
            "rotation" : [
                -3.090862321641907e-08,
                0.7071067094802856,
                -0.7071068286895752,
                -3.0908616110991716e-08
            ]
        }
    ],
    "samplers" : [
        {}
    ],
    "scene" : 0,
    "scenes" : [
        {
            "extensions" : {
                "KHR_lights" : {
                    "light" : 4
                }
            },
            "name" : "Scene",
            "nodes" : [
                9,
                11,
                10,
                0
            ]
        }
    ],
    "textures" : [
        {
            "sampler" : 0,
            "source" : 0
        },
        {
            "sampler" : 0,
            "source" : 1
        },
        {
            "sampler" : 0,
            "source" : 2
        },
        {
            "sampler" : 0,
            "source" : 3
        }
    ]
}
