{"asset":{"version":"2.0","generator":"babylon.js glTF exporter for maya 2018 v1.1.6","copyright":"2017 (c) BabylonJS"},"scene":0,"scenes":[{"nodes":[0]}],"nodes":[{"mesh":0,"translation":[0.0,0.0,0.0],"rotation":[0.0,0.0,0.0,1.0],"scale":[1.0,1.0,1.0],"name":"pCube2"}],"meshes":[{"primitives":[{"attributes":{"POSITION":1,"NORMAL":2,"TEXCOORD_0":3},"indices":0,"mode":4,"material":0}],"name":"pCube2"}],"accessors":[{"bufferView":0,"componentType":5123,"count":1236,"type":"SCALAR","name":"accessorIndices"},{"bufferView":1,"componentType":5126,"count":266,"max":[0.5500242,0.5,1.88300478],"min":[-0.449975759,-0.541444659,-0.5],"type":"VEC3","name":"accessorPositions"},{"bufferView":1,"byteOffset":3192,"componentType":5126,"count":266,"type":"VEC3","name":"accessorNormals"},{"bufferView":2,"componentType":5126,"count":266,"type":"VEC2","name":"accessorUVs"}],"bufferViews":[{"buffer":0,"byteLength":2472,"name":"bufferViewScalar"},{"buffer":0,"byteOffset":2472,"byteLength":6384,"byteStride":12,"name":"bufferViewFloatVec3"},{"buffer":0,"byteOffset":8856,"byteLength":2128,"byteStride":8,"name":"bufferViewFloatVec2"}],"buffers":[{"uri":"obj_OpacityTest_Babylon.bin","byteLength":10984}],"materials":[{"pbrMetallicRoughness":{"baseColorFactor":[1.0,1.0,1.0,1.0],"baseColorTexture":{"index":0,"texCoord":0},"metallicFactor":0.0,"roughnessFactor":1.0},"emissiveFactor":[0.0,0.0,0.0],"alphaMode":"BLEND","name":"StingrayPBS1"}],"textures":[{"sampler":0,"source":0,"name":"tex_OpacityTest.png"}],"images":[{"uri":"tex_OpacityTest.png"}],"samplers":[{"magFilter":9729,"minFilter":9987,"wrapS":10497,"wrapT":10497}]}