{"asset":{"version":"2.0","generator":"babylon.js glTF exporter for maya 2018 v1.1.6","copyright":"2017 (c) BabylonJS"},"scene":0,"scenes":[{"nodes":[0,1]}],"nodes":[{"translation":[0.0,0.0,0.0],"rotation":[0.0,0.0,0.0,1.0],"scale":[1.0,1.0,1.0],"name":"transform1"},{"mesh":0,"translation":[0.0,0.0,0.0],"rotation":[0.0,0.0,0.0,1.0],"scale":[1.0,1.0,1.0],"name":"obj_PyreneesRock"}],"meshes":[{"primitives":[{"attributes":{"POSITION":1,"NORMAL":2,"TEXCOORD_0":3},"indices":0,"mode":4,"material":0},{"attributes":{"POSITION":5,"NORMAL":6,"TEXCOORD_0":7},"indices":4,"mode":4,"material":1}],"name":"obj_PyreneesRock"}],"accessors":[{"bufferView":0,"componentType":5123,"count":6600,"type":"SCALAR","name":"accessorIndices"},{"bufferView":1,"componentType":5126,"count":1138,"max":[184.067566,475.040375,149.857971],"min":[-168.911316,1.1175065,-167.128464],"type":"VEC3","name":"accessorPositions"},{"bufferView":1,"byteOffset":13656,"componentType":5126,"count":1138,"type":"VEC3","name":"accessorNormals"},{"bufferView":2,"componentType":5126,"count":1138,"type":"VEC2","name":"accessorUVs"},{"bufferView":0,"byteOffset":13200,"componentType":5123,"count":837,"type":"SCALAR","name":"accessorIndices"},{"bufferView":1,"byteOffset":27312,"componentType":5126,"count":383,"max":[66.0766,550.8552,31.3000984],"min":[-59.2663345,452.527344,-44.8317375],"type":"VEC3","name":"accessorPositions"},{"bufferView":1,"byteOffset":31908,"componentType":5126,"count":383,"type":"VEC3","name":"accessorNormals"},{"bufferView":2,"byteOffset":9104,"componentType":5126,"count":383,"type":"VEC2","name":"accessorUVs"}],"bufferViews":[{"buffer":0,"byteLength":14876,"name":"bufferViewScalar"},{"buffer":0,"byteOffset":14876,"byteLength":36504,"byteStride":12,"name":"bufferViewFloatVec3"},{"buffer":0,"byteOffset":51380,"byteLength":12168,"byteStride":8,"name":"bufferViewFloatVec2"}],"buffers":[{"uri":"obj_PyreneesRockBabylon.bin","byteLength":63548}],"materials":[{"pbrMetallicRoughness":{"baseColorFactor":[1.0,1.0,1.0,1.0],"baseColorTexture":{"index":2,"texCoord":0},"metallicFactor":1.0,"roughnessFactor":1.0,"metallicRoughnessTexture":{"index":3,"texCoord":0}},"normalTexture":{"index":0,"texCoord":0},"occlusionTexture":{"index":1,"texCoord":0},"emissiveFactor":[0.0,0.0,0.0],"alphaMode":"OPAQUE","name":"mat_PyreneesRock_Rock"},{"pbrMetallicRoughness":{"baseColorFactor":[1.0,1.0,1.0,1.0],"baseColorTexture":{"index":6,"texCoord":0},"metallicFactor":1.0,"roughnessFactor":1.0,"metallicRoughnessTexture":{"index":7,"texCoord":0}},"normalTexture":{"index":4,"texCoord":0},"occlusionTexture":{"index":5,"texCoord":0},"emissiveFactor":[0.0,0.0,0.0],"alphaMode":"OPAQUE","name":"mat_PyreneesRock_Castle"}],"textures":[{"sampler":0,"source":0,"name":"tex_PyreneesRock_Rock_Normal.png"},{"sampler":1,"source":1,"name":"tex_PyreneesRock_Rock_Occlusion.png"},{"sampler":2,"source":2,"name":"tex_PyreneesRock_Rock_Albedo.png"},{"sampler":3,"source":3,"name":"mat_PyreneesRock_Rock_metallicRoughness.jpg"},{"sampler":4,"source":4,"name":"tex_PyreneesRock_Castle_Normal.png"},{"sampler":5,"source":5,"name":"tex_PyreneesRock_Castle_Occlusion.png"},{"sampler":6,"source":6,"name":"tex_PyreneesRock_Castle_Albedo.png"},{"sampler":7,"source":7,"name":"mat_PyreneesRock_Castle_metallicRoughness.jpg"}],"images":[{"uri":"tex_PyreneesRock_Rock_Normal.png"},{"uri":"tex_PyreneesRock_Rock_Occlusion.png"},{"uri":"tex_PyreneesRock_Rock_Albedo.png"},{"uri":"mat_PyreneesRock_Rock_metallicRoughness.jpg"},{"uri":"tex_PyreneesRock_Castle_Normal.png"},{"uri":"tex_PyreneesRock_Castle_Occlusion.png"},{"uri":"tex_PyreneesRock_Castle_Albedo.png"},{"uri":"mat_PyreneesRock_Castle_metallicRoughness.jpg"}],"samplers":[{"magFilter":9729,"minFilter":9987,"wrapS":10497,"wrapT":10497},{"magFilter":9729,"minFilter":9987,"wrapS":10497,"wrapT":10497},{"magFilter":9729,"minFilter":9987,"wrapS":10497,"wrapT":10497},{"magFilter":9729,"minFilter":9987,"wrapS":10497,"wrapT":10497},{"magFilter":9729,"minFilter":9987,"wrapS":10497,"wrapT":10497},{"magFilter":9729,"minFilter":9987,"wrapS":10497,"wrapT":10497},{"magFilter":9729,"minFilter":9987,"wrapS":10497,"wrapT":10497},{"magFilter":9729,"minFilter":9987,"wrapS":10497,"wrapT":10497}]}